<svg width="28" height="28" viewBox="0 0 28 28" fill="none" xmlns="http://www.w3.org/2000/svg">
<path d="M19.7266 0.615479H8.67612C4.35797 0.615479 0.857422 4.11603 0.857422 8.43418V19.4846C0.857422 23.8028 4.35797 27.3033 8.67612 27.3033H19.7266C24.0447 27.3033 27.5453 23.8028 27.5453 19.4846V8.43418C27.5453 4.11603 24.0447 0.615479 19.7266 0.615479Z" fill="#FF9F07"/>
<path d="M24.522 15.4085C24.522 17.8954 22.5063 19.9111 20.0195 19.9111H15.9959V15.9256L16.1325 16.0622C16.4421 16.3718 16.8534 16.5423 17.2907 16.5423C17.7281 16.5423 18.1398 16.3718 18.4489 16.0622C19.0875 15.4237 19.0875 14.3843 18.4489 13.7452L15.5159 10.8122C15.2063 10.5026 14.795 10.3321 14.3577 10.3321C13.9203 10.3321 13.5086 10.5026 13.1995 10.8122L10.2664 13.7452C9.62788 14.3838 9.62788 15.4231 10.2664 16.0622C10.576 16.3718 10.9873 16.5423 11.4246 16.5423C11.8619 16.5423 12.2737 16.3718 12.5828 16.0622L12.7194 15.9256V19.9111H8.06831C5.92807 19.9111 4.19336 18.1764 4.19336 16.0361C4.19336 14.4823 5.10815 13.1427 6.42847 12.525C6.28512 12.1977 6.20537 11.837 6.20537 11.457C6.20537 9.9834 7.40007 8.78871 8.87363 8.78871C9.25414 8.78871 9.61589 8.86898 9.94323 9.01232C10.783 7.20568 12.6131 5.95312 14.7366 5.95312C17.5435 5.95312 19.8386 8.14236 20.0095 10.906H20.02C22.5068 10.906 24.5225 12.9217 24.5225 15.4085H24.522ZM10.6349 15.6937C11.0712 16.1299 11.7785 16.1299 12.2143 15.6937L13.2406 14.6673V21.3607C13.2406 21.9773 13.7405 22.4777 14.3577 22.4777C14.9743 22.4777 15.4747 21.9778 15.4747 21.3607V14.6673L16.501 15.6937C16.9373 16.1299 17.6447 16.1299 18.0804 15.6937C18.5167 15.2574 18.5167 14.55 18.0804 14.1143L15.1474 11.1812C14.7111 10.7449 14.0037 10.7449 13.568 11.1812L10.6349 14.1143C10.1986 14.5506 10.1986 15.2579 10.6349 15.6937Z" fill="white"/>
</svg>
